<?xml version="1.0" standalone="no"?><!DOCTYPE svg PUBLIC "-//W3C//DTD SVG 1.1//EN" "http://www.w3.org/Graphics/SVG/1.1/DTD/svg11.dtd"><svg t="1740292817151" class="icon" viewBox="0 0 1024 1024" version="1.1" xmlns="http://www.w3.org/2000/svg" p-id="9699" xmlns:xlink="http://www.w3.org/1999/xlink" width="128" height="128"><path d="M325.782 1017.094c1.71-74.599-22.637-115.332-60.487-124.921-14.827-8.705-31.471-14.806-53.155-19.327l-10.096-1.83c-12.343-2.076-24.903-3.408-37.513-4.748-16.586-1.739-32.207-3.43-47.62-6.768l-8-1.52c-18.83-3.43-28.002-5.982-30.874-13.654-3.985-11.48 0.507-23.183 8.486-41.2l3.468-8.03c7.096-16.645 12.78-34.86 6.36-54.783-1.808-5.644-4.57-11.11-8.188-16.317a45.999 45.999 0 0 0 8.188-8.368c15.82-23.748-1.43-43.008-7.89-50.242-0.427-0.496-0.934-1.034-1.341-1.47 0.864-1.292 1.7-2.594 2.564-3.886 9.896-15.056 19.695-33.768 17.151-58.312-0.079-0.805-0.378-2.275-0.517-3.141C99.74 569.124 76.02 559.863 60.36 553.7c-7.85-3.06-15.243-5.933-18.653-9.57-0.735-0.904-1.44-2.882-1.44-4.66l90.648-96.491a4577.744 4577.744 0 0 0 37.225-40.076 21.73 21.73 0 0 0 3.984-6.25l4.283-10.465c9.271-23.899-0.497-42.184-7.623-55.579l-3.21-6.22c-1.103-2.246-2.175-4.543-2.87-6.917-0.717-2.494-0.936-4.62-0.984-4.71 4.46-20.947 11.209-41.568 20.59-63.032 7.87-18.096 17.638-36.539 28.957-54.833 10.403-16.805 22.04-33.47 35.634-51.099 10.463-13.563 21.386-26.83 30.737-37.91 10.88-9.718 22.735-18.989 35.197-27.546 5.217-3.547 10.564-6.955 15.959-10.284 7.076-4.293 14.191-8.338 21.485-12.104 22.427-11.596 46.675-21.325 72.143-28.828C470.25 12.907 522.43 6.11 576.001 6.975 644.836 12.51 702.054 23.55 750.916 40.73a494.063 494.063 0 0 1 24.158 9.172c10.465 4.422 20.809 9.202 30.914 14.41 21.703 11.228 41.986 24.276 60.846 39.241a238.027 238.027 0 0 1 14.45 11.497 239.55 239.55 0 0 1 21.225 20.63c9.162 10.127 17.759 21.386 25.509 33.529 23.7 37.056 39.719 81.843 48.99 136.904 0.954 5.526 1.769 11.062 2.534 16.437l2.504 22.984c3.766 44.181 1.243 84.597-7.551 120.172-0.994 4.055-2.097 7.96-3.25 11.935-1.62 5.385-3.37 10.791-5.942 18.036-5.357 20.083-13.784 40.374-25.828 61.95-3.27 5.851-6.737 11.605-10.285 17.278-2.99 4.78-6.022 9.561-9.202 14.311-8.912 13.256-18.473 26.264-28.301 39.173-6.4 8.496-12.988 16.903-19.517 25.399-19.247 24.832-39.211 50.52-56.354 77.322-15.462 24.028-27.028 46.427-35.416 68.448-6.38 16.505-11.04 33.219-14.13 51.722-0.656 9.51-1.213 21.813-1.68 35.685-0.914 25.697-1.63 56.692-2.186 84.07l-0.169 9.023c-0.308 15.512 3.875 37.036 3.696 37.036" fill="#EBEEF0" p-id="9700"></path><path d="M416.201 224.62c6.28 0 12.381 0.655 18.373 1.698 7.802-69.54 66.73-123.618 138.376-123.618 59.782 0 110.592 37.712 130.397 90.569 8.436-2.187 17.24-3.49 26.372-3.49 57.697 0 104.491 46.805 104.491 104.51a104.12 104.12 0 0 1-7.78 39.54c34.76 11.418 60.04 43.765 60.04 82.38 0 48.106-38.983 87.091-87.08 87.091-57.735 0-121.93 46.794-121.93 104.499V503.3c0-38.478-31.203-69.671-69.67-69.671H416.201c-57.696 0-104.49-46.794-104.49-104.499 0-57.726 46.794-104.51 104.49-104.51z" fill="#FFAB00" p-id="9701"></path><path d="M989.778 347.743l-2.535-23.005c-0.773-5.436-1.59-11.01-2.534-16.526-9.51-56.394-26.066-102.463-50.62-140.85-8.118-12.69-17.16-24.566-26.91-35.347a254.289 254.289 0 0 0-22.438-21.813c-4.86-4.193-9.966-8.248-14.697-11.696-19.1-15.184-40.147-28.758-62.565-40.365-10.295-5.306-20.837-10.186-31.65-14.747a484.818 484.818 0 0 0-24.526-9.31C702.095 16.782 644.737 5.672 574.63 0.067c-54.695-0.834-107.033 6.012-155.567 20.45-25.916 7.643-50.75 17.571-73.785 29.485-7.542 3.875-14.885 8.049-22.259 12.541a432.276 432.276 0 0 0-16.396 10.562c-12.868 8.824-25.081 18.393-36.3 28.42a19.949 19.949 0 0 0-1.967 2.028c-9.313 11-20.134 24.157-30.508 37.612-13.733 17.787-25.469 34.622-35.884 51.455-11.626 18.78-21.564 37.612-29.514 55.926-9.708 22.2-16.674 43.556-21.305 65.269a20.434 20.434 0 0 0-0.159 7.65 53.316 53.316 0 0 0 1.5 6.967c1.004 3.379 2.455 6.658 4.224 10.275l3.28 6.36c7.263 13.633 11.626 23.581 6.518 36.758l-4.194 10.215c-11.904 12.958-23.899 25.896-36.092 38.844l-88.232 93.91a20.363 20.363 0 0 0-5.515 13.93c0 6.28 2.216 12.77 6.926 18.493 6.459 6.876 15.72 10.485 25.628 14.35 16.505 6.49 28.48 12.373 32.355 29.852 1.81 17.458-5.406 31.223-13.325 43.297l-2.544 3.845c-5.167 7.71-3.12 19.409 3.07 26.334 10.603 11.884 10.305 17.41 6.658 22.965a24.9 24.9 0 0 1-4.46 4.57c-8.418 6.68-10.177 18.753-4.036 27.568 2.385 3.416 4.164 6.945 5.307 10.483 3.974 12.322 0.656 24.546-5.526 39.024l-3.279 7.62c-7.721 17.39-15.7 35.376-8.715 55.5 7.185 19.2 27.516 22.896 45.284 26.126l7.304 1.38c16.586 3.598 33.559 5.377 48.683 6.957 11.805 1.252 23.552 2.484 34.839 4.392l9.332 1.689c18.86 3.926 32.922 8.993 45.583 16.436a19.892 19.892 0 0 0 5.325 2.186c39.64 10.038 44.28 67.832 43.516 101.39-0.259 11.24 8.635 20.56 19.873 20.808 0.16 0.01 0.319 0.01 0.478 0.01 11.02 0 20.083-8.804 20.33-19.883 2.356-102.91-42.361-132.573-71.328-140.99-15.81-8.922-33.56-15.244-55.986-19.904l-10.087-1.828c-12.372-2.089-24.942-3.438-37.792-4.8-17.41-1.819-30.765-3.34-44.637-6.34l-7.979-1.52c-2.863-0.517-10.246-1.86-14.678-3.16 0.507-4.999 3.896-12.998 7.95-22.141l3.398-7.89c8.07-18.91 15.184-41.726 6.857-67.554a76.674 76.674 0 0 0-2.435-6.499c9.74-14.617 16.567-36.847-0.994-62.982 9.094-15.67 17.133-35.903 14.499-61.262-0.109-1.144-0.467-3.16-0.904-5.386-8.03-36.102-35.357-49.428-52.985-56.563l71.896-76.526a4417.907 4417.907 0 0 0 36.43-39.224c3.25-3.547 5.823-7.602 7.69-12.103l4.313-10.534c12.392-31.937-0.615-56.373-8.307-70.812l-2.901-5.624c-0.368-0.746-0.756-1.49-1.163-2.624 4.043-17.5 9.887-34.88 17.827-53.035 7.194-16.575 16.208-33.657 26.811-50.77 9.668-15.63 20.62-31.342 33.488-48.016 9.649-12.49 19.686-24.734 28.43-35.089 9.65-8.536 20.123-16.704 31.054-24.207a400.797 400.797 0 0 1 14.707-9.469c6.469-3.936 12.978-7.632 19.687-11.09 20.778-10.753 43.196-19.706 66.678-26.633 44.598-13.265 92.743-19.575 142.052-18.84C637.93 45.959 691.95 56.352 737.86 72.5a432.97 432.97 0 0 1 22.309 8.467c9.698 4.094 19.287 8.517 28.63 13.337 20.063 10.383 38.883 22.517 56.553 36.548a206.31 206.31 0 0 1 12.837 10.196 214.5 214.5 0 0 1 18.831 18.304c8.209 9.073 15.88 19.149 22.787 29.951 21.544 33.678 36.183 74.788 44.766 125.726 0.895 5.197 1.65 10.374 2.287 14.786l2.404 21.872c3.478 40.782 1.182 77.918-6.837 110.363-0.903 3.667-1.906 7.215-2.911 10.662-1.48 4.95-3.081 9.918-5.942 18.156-4.81 18.027-12.412 36.222-23.274 55.66-3 5.405-6.19 10.681-9.439 15.889-2.812 4.47-5.644 8.952-8.617 13.375-7.63 11.337-16.157 23.134-26.93 37.234-4.33 5.764-8.754 11.488-13.186 17.222l-6.42 8.308c-18.77 24.217-38.179 49.258-55.091 75.712-15.792 24.535-27.696 47.559-36.34 70.296-6.859 17.717-11.708 35.495-15.077 56.274-0.655 9.45-1.212 21.663-1.678 35.415-0.895 25.123-1.59 55.4-2.137 82.192l-0.158 8.756c-0.27 13.851 2.474 30.893 3.755 38.891l20.193-2.443-15.373-13.336 30.865 26.532c6.122-7.193 4.91-14.755 4.253-18.82-0.795-4.899-3.2-19.835-2.99-30.06l0.158-8.745c0.528-26.533 1.222-56.592 2.117-81.555 0.446-13.216 0.964-24.931 1.372-32.067 2.684-16.09 6.825-31.253 12.699-46.457 7.672-20.163 18.325-40.723 32.594-62.892 15.959-24.953 34.79-49.25 53.84-73.824l5.626-7.294c4.53-5.863 9.051-11.716 13.414-17.5 11.19-14.658 20.161-27.088 28.28-39.133 3.21-4.789 6.262-9.609 9.322-14.478 3.637-5.834 7.185-11.716 10.503-17.678 12.511-22.399 21.355-43.655 26.553-63.4 2.664-7.452 4.442-13.019 6.141-18.702 1.203-4.124 2.344-8.209 3.389-12.421 9.093-36.779 11.746-78.367 7.841-124.076z" fill="#43525B" p-id="9702"></path><path d="M896.856 418.764c0-38.497-21.028-73.169-53.94-91.444a121.511 121.511 0 0 0 3.08-27.247c0-71.777-62.248-129.889-135.634-121.264-26.323-51.802-80.214-85.57-139.031-85.57-72.69 0-134.63 49.796-151.433 118.7-67.424-0.547-123.212 54.367-123.212 122.05 0 67.315 54.764 122.079 122.069 122.079h186.482c26.184 0 47.48 21.286 47.48 47.46v101.717c0 11.239 9.111 20.352 20.35 20.352 11.24 0 20.353-9.113 20.353-20.352 0-45.075 53.78-81.365 98.308-81.365 57.965 0 105.128-47.153 105.128-105.117zM693.42 521.584v-18.057c0-48.612-39.56-88.162-88.183-88.162H418.756c-44.866 0-81.366-36.51-81.366-81.377 0-44.856 36.499-81.356 81.366-81.356 4.561 0 9.251 0.438 14.35 1.332a20.368 20.368 0 0 0 15.72-3.746 20.348 20.348 0 0 0 8.03-14.022c6.547-58.291 55.757-102.254 114.475-102.254 47.72 0 91.065 30.12 107.859 74.947 3.667 9.748 14.082 15.134 24.158 12.571 7.154-1.848 13.882-2.753 20.57-2.753 44.867 0 81.376 36.5 81.376 81.366 0 10.583-2.048 20.947-6.071 30.815a20.35 20.35 0 0 0 0.366 16.228 20.331 20.331 0 0 0 12.125 10.802c26.582 8.725 44.439 33.18 44.439 60.846 0 35.515-28.898 64.412-64.424 64.412-34.572 0-71.29 14.488-98.308 38.408z" fill="#43525B" p-id="9703"></path><path d="M571.331 296.695h33.906v40.703H571.33z m-67.812 0h33.895v40.703H503.52z m135.633 0h33.915v40.703h-33.915z" fill="#43525B" p-id="9704"></path></svg>